# xmcd
#
# Track frame offsets:
#	150
#	20093
#	44548
#	59508
#	77738
#	92558
#	109518
#	120333
#	134790
#	150380
#	164653
#	183263
#	198118
#	214890
#	228113
#	252293
#
# Disc length: 3576 seconds
#
# Revision: 1
# Processed by: cddbd v1.5.2PL0 Copyright (c) Steve Scherf et al.
# Submitted via: audiograbber 1.83.01
#
DISCID=d50df610
DTITLE=Kathy Durkin - Moonlight Reflections
DYEAR=1989
DGENRE=
TTITLE0=Midnight To Moonlight
TTITLE1=The Water Is Wide
TTITLE2=The Tie That Binds
TTITLE3=The Way Back Home
TTITLE4=The Clock In The Tower
TTITLE5=Boulder To Birmingham
TTITLE6=Love Makes The World Go Round
TTITLE7=As I Leave Behind Neidin
TTITLE8=Mama's Angels
TTITLE9=Jones On The Jukebox
TTITLE10=The Rose
TTITLE11=Blue Kentucky Girl
TTITLE12=Anger And Tears
TTITLE13=Jigs
TTITLE14=Flight Of Earls
TTITLE15=Save The Last Dance For Me
EXTD=
EXTT0=
EXTT1=
EXTT2=
EXTT3=
EXTT4=
EXTT5=
EXTT6=
EXTT7=
EXTT8=
EXTT9=
EXTT10=
EXTT11=
EXTT12=
EXTT13=
EXTT14=
EXTT15=
PLAYORDER=
